<?xml version="1.0" encoding="UTF-8" standalone="no"?>
<!DOCTYPE svg PUBLIC "-//W3C//DTD SVG 1.1//EN" "http://www.w3.org/Graphics/SVG/1.1/DTD/svg11.dtd">
<svg width="377px" height="319px" viewBox="0 0 377 319" version="1.1"
	xmlns="http://www.w3.org/2000/svg"
	xmlns:xlink="http://www.w3.org/1999/xlink" xml:space="preserve"
	xmlns:serif="http://www.serif.com/" style="fill-rule:evenodd;clip-rule:evenodd;stroke-linejoin:round;stroke-miterlimit:2;">
	<g>
		<g>
			<g>
				<path d="M75.919,85.84l0,81.792l-75.919,0c0,0 18.456,-57.045 75.919,-81.792" style="fill:#fdc513;fill-rule:nonzero;"/>
				<path d="M139.261,318.214c-65.016,0 -63.336,-74.24 -63.336,-74.24l0,-76.344l126.672,0l0,76.344c0,0 1.673,74.24 -63.336,74.24" style="fill:#155eaa;fill-rule:nonzero;"/>
				<path d="M163.86,158.104c-1.599,0 -3.02,-0.594 -4.267,-1.773c-1.183,-1.12 -1.774,-2.526 -1.774,-4.22l-0,-18.604l-18.602,-27.855c-0.959,-1.151 -1.423,-2.461 -1.391,-3.932c-0,-1.886 0.703,-3.468 2.109,-4.746c1.152,-1.055 2.509,-1.582 4.075,-1.582c1.823,-0 3.309,0.719 4.459,2.157l15.391,23.925l15.342,-24.02c1.183,-1.374 2.669,-2.062 4.459,-2.062c1.406,-0 2.748,0.495 4.027,1.487c1.438,1.246 2.157,2.763 2.157,4.554c-0,1.438 -0.512,2.813 -1.534,4.123l-18.362,27.903l-0,18.652c-0,1.693 -0.592,3.1 -1.774,4.22c-1.215,1.179 -2.654,1.773 -4.315,1.773" style="fill:#525151;fill-rule:nonzero;"/>
				<path d="M230.195,158.64c-5.765,0 -11.116,-1.45 -16.052,-4.349c-4.809,-2.771 -8.599,-6.544 -11.37,-11.321c-2.866,-4.938 -4.3,-10.272 -4.3,-16.005c0,-5.732 1.417,-11.082 4.251,-16.052c2.772,-4.84 6.514,-8.677 11.229,-11.513c4.84,-2.93 10.159,-4.394 15.955,-4.394c8.886,0 16.498,3.151 22.834,9.459c1.179,1.178 1.769,2.564 1.769,4.155c-0,1.657 -0.59,3.075 -1.769,4.252c-1.178,1.178 -2.658,1.768 -4.441,1.768c-1.624,0 -2.994,-0.557 -4.108,-1.672c-3.888,-3.79 -8.584,-5.684 -14.094,-5.684c-5.35,-0 -9.904,1.877 -13.663,5.634c-3.854,3.855 -5.779,8.506 -5.779,13.951c0,5.512 1.895,10.151 5.686,13.925c3.788,3.775 8.423,5.663 13.901,5.663c3.821,-0 7.062,-0.71 9.721,-2.126c2.659,-1.418 4.579,-3.481 5.757,-6.186l-7.022,0c-1.655,0 -3.058,-0.59 -4.203,-1.769c-1.18,-1.242 -1.769,-2.676 -1.769,-4.301c-0,-1.591 0.589,-3.007 1.769,-4.25c1.113,-1.209 2.516,-1.816 4.203,-1.816l14.379,0.096c1.656,-0 3.104,0.573 4.347,1.72c1.212,1.051 1.817,2.484 1.817,4.299c-0.097,3.726 -0.901,7.231 -2.413,10.51c-1.513,3.28 -3.607,6.115 -6.283,8.503c-2.707,2.39 -5.812,4.236 -9.315,5.543c-3.505,1.306 -7.185,1.96 -11.037,1.96" style="fill:#155eaa;fill-rule:nonzero;"/>
				<path d="M285.753,158.066l-10.892,0c-1.623,0 -3.058,-0.59 -4.298,-1.769c-1.18,-1.115 -1.769,-2.517 -1.769,-4.204l0,-50.688c0,-1.687 0.589,-3.105 1.769,-4.252c1.24,-1.146 2.675,-1.718 4.298,-1.718l10.892,0c5.766,0 11.132,1.4 16.101,4.204c4.842,2.77 8.661,6.528 11.465,11.273c2.898,4.97 4.348,10.288 4.348,15.956c0,5.637 -1.449,10.924 -4.348,15.861c-2.771,4.587 -6.593,8.296 -11.465,11.131c-4.969,2.803 -10.335,4.206 -16.101,4.206m-4.825,-12.183l4.873,0c5.511,0 10.16,-1.792 13.951,-5.376c3.789,-3.582 5.685,-8.126 5.685,-13.638c0,-5.414 -1.896,-9.967 -5.685,-13.663c-3.855,-3.662 -8.504,-5.494 -13.951,-5.494l-4.873,0l0,38.171Z" style="fill:#155eaa;fill-rule:nonzero;"/>
				<path d="M371.269,158.066c-0.703,0 -1.467,-0.127 -2.296,-0.382c-1.56,-0.543 -2.723,-1.625 -3.486,-3.249l-5.159,-12.373l-22.549,0l-5.065,12.373c-0.604,1.624 -1.719,2.706 -3.342,3.249c-0.798,0.255 -1.514,0.382 -2.15,0.382c-0.86,0 -1.752,-0.175 -2.675,-0.527c-1.466,-0.543 -2.485,-1.654 -3.059,-3.344c-0.224,-0.699 -0.334,-1.385 -0.334,-2.052c-0,-0.862 0.19,-1.722 0.571,-2.582l21.977,-50.448c1.082,-2.451 2.93,-3.677 5.543,-3.677c1.176,0 2.26,0.317 3.247,0.955c0.989,0.637 1.72,1.528 2.198,2.675l21.688,50.495c0.383,0.925 0.573,1.832 0.573,2.723c0,1.434 -0.463,2.707 -1.385,3.823c-1.147,1.306 -2.579,1.959 -4.297,1.959m-28.523,-28.139l12.469,-0l-6.305,-15.096l-6.164,15.096Z" style="fill:#155eaa;fill-rule:nonzero;"/>
				<path d="M115,95.281c-4.166,0 -8.022,1.346 -11.159,3.624c-4.761,3.451 -7.855,9.055 -7.855,15.389l0,37.929c0,1.692 0.59,3.101 1.775,4.216c1.248,1.185 2.686,1.774 4.313,1.774c1.697,0 3.135,-0.59 4.314,-1.774c1.185,-1.179 1.774,-2.588 1.774,-4.216l0,-20.184c2.126,0.82 4.426,1.269 6.838,1.269c10.507,-0 19.014,-8.508 19.014,-19.014c0,-10.499 -8.507,-19.013 -19.014,-19.013m-0,25.872c-3.787,0 -6.858,-3.071 -6.858,-6.859c-0,-3.787 3.071,-6.86 6.858,-6.86c3.788,0 6.859,3.073 6.859,6.86c0,3.788 -3.071,6.859 -6.859,6.859" style="fill:#525151;fill-rule:nonzero;"/>
			</g>
			<g>
				<path d="M75.923,85.841l126.671,0l0,-85.839c-17.128,0.535 -97.41,-6.879 -126.671,85.839Z" style="fill:#155eaa;fill-rule:nonzero;"/>
				<path d="M202.589,0l0.005,0.001l0,-0.001l-0.005,0Z" style="fill:#155eaa;fill-rule:nonzero;"/>
			</g>
		</g>
	</g>
</svg>